<svg enable-background="new 0 0 480 140" viewBox="0 0 480 140" xmlns="http://www.w3.org/2000/svg"><g clip-rule="evenodd" fill-rule="evenodd"><path d="m214.14 69.21-49.19 67.7h-75.71l49-67.7-49-67.71h75.71z" fill="#c2d500"/><path d="m346.96 98.4c-3.56 14.27-12.89 19.87-25.96 19.87h-12.1l-4.05 18.75h-17.88l12.54-58.47h30.56c11.92 0 20.27 6.3 16.89 19.85zm-24.67-6.93h-7.65l-2.83 13.24h7.64c7.23 0 9.28-3.64 10.05-7.03.7-3.13.56-6.21-7.21-6.21zm83.04 1.42h-17.01l-9.47 44.13h-17.82l9.47-44.13h-17l3.07-14.34h51.83zm58.86 44.13h-21.81l-10.96-22.24-4.5 3.73-3.92 18.51h-17.66l12.54-58.47h17.66l-3.96 18.45 21.65-18.45h22.46l-29.62 24.65zm-197.17-29.39c1.69-7.22 1.06-16.1-8.27-16.16-9.27-.05-12.98 6.64-15.16 14.69-1.92 7.09-2.75 18.09 7.83 18.09 9.74 0 13.83-9.07 15.6-16.62zm18.61 1.05c-4.11 20.85-21.76 31.34-41.24 29.64-19.95-1.74-24.69-17.82-18.51-36.48 5.86-17.71 19.88-25.28 37.7-24.87 19.98.45 25.54 13.99 22.05 31.71z" fill="#fff"/><path d="m129.2 69.21-49.19 67.7h-75.7l48.99-67.7-48.99-67.71h75.7z" fill="#f38020"/></g></svg>